<svg width="333" height="43" viewBox="0 0 333 43" fill="none" xmlns="http://www.w3.org/2000/svg">
<path d="M0.32 42L18.03 0.309999H18.415L36.125 42H28.755L16.27 10.375L20.89 7.24L6.645 42H0.32ZM11.43 27.15H25.125L27.325 32.595H9.505L11.43 27.15ZM48.457 42V0.53H48.512L70.072 31.055L67.322 30.45L88.772 0.53H88.882V42H82.502V14.995L82.942 18.295L68.477 38.755H68.367L53.572 18.295L54.672 15.27V42H48.457ZM105.358 1.96H111.793V42H105.358V1.96ZM160.159 38.315C159.646 38.8283 158.876 39.3233 157.849 39.8C156.859 40.2767 155.741 40.7167 154.494 41.12C153.248 41.5233 151.964 41.835 150.644 42.055C149.324 42.3117 148.078 42.44 146.904 42.44C143.678 42.44 140.763 41.945 138.159 40.955C135.593 39.965 133.374 38.6083 131.504 36.885C129.671 35.125 128.259 33.0533 127.269 30.67C126.316 28.2867 125.839 25.7017 125.839 22.915C125.839 19.4317 126.389 16.37 127.489 13.73C128.589 11.0533 130.093 8.81667 131.999 7.02C133.906 5.18666 136.088 3.81166 138.544 2.895C141.038 1.97833 143.659 1.52 146.409 1.52C148.829 1.52 151.066 1.795 153.119 2.345C155.209 2.895 156.988 3.59167 158.454 4.435L156.364 10.375C155.668 9.97166 154.769 9.58667 153.669 9.22C152.569 8.81666 151.451 8.505 150.314 8.285C149.214 8.065 148.188 7.955 147.234 7.955C144.924 7.955 142.853 8.285 141.019 8.945C139.223 9.56833 137.683 10.5033 136.399 11.75C135.116 12.9967 134.126 14.5183 133.429 16.315C132.769 18.075 132.439 20.0917 132.439 22.365C132.439 24.4183 132.788 26.2883 133.484 27.975C134.218 29.6617 135.226 31.11 136.509 32.32C137.829 33.53 139.369 34.465 141.129 35.125C142.926 35.7483 144.906 36.06 147.069 36.06C148.316 36.06 149.526 35.95 150.699 35.73C151.873 35.51 152.863 35.1617 153.669 34.685V28.03H146.189V21.87H160.159V38.315ZM172.912 22.035C172.912 19.2483 173.443 16.6267 174.507 14.17C175.57 11.7133 177.037 9.53167 178.907 7.625C180.777 5.71833 182.94 4.23333 185.397 3.17C187.89 2.07 190.548 1.52 193.372 1.52C196.158 1.52 198.78 2.07 201.237 3.17C203.73 4.23333 205.912 5.71833 207.782 7.625C209.688 9.53167 211.173 11.7133 212.237 14.17C213.337 16.6267 213.887 19.2483 213.887 22.035C213.887 24.8583 213.337 27.4983 212.237 29.955C211.173 32.4117 209.688 34.5933 207.782 36.5C205.912 38.37 203.73 39.8367 201.237 40.9C198.78 41.9267 196.158 42.44 193.372 42.44C190.512 42.44 187.853 41.9267 185.397 40.9C182.94 39.8367 180.777 38.3883 178.907 36.555C177.037 34.685 175.57 32.5217 174.507 30.065C173.443 27.5717 172.912 24.895 172.912 22.035ZM179.512 22.035C179.512 24.015 179.86 25.8667 180.557 27.59C181.29 29.3133 182.298 30.835 183.582 32.155C184.865 33.4383 186.35 34.4467 188.037 35.18C189.723 35.9133 191.557 36.28 193.537 36.28C195.443 36.28 197.222 35.9133 198.872 35.18C200.558 34.4467 202.025 33.4383 203.272 32.155C204.518 30.835 205.49 29.3133 206.187 27.59C206.92 25.8667 207.287 24.015 207.287 22.035C207.287 20.0183 206.92 18.1483 206.187 16.425C205.453 14.7017 204.463 13.18 203.217 11.86C201.97 10.54 200.503 9.51333 198.817 8.78C197.13 8.04667 195.315 7.68 193.372 7.68C191.428 7.68 189.613 8.04667 187.927 8.78C186.24 9.51333 184.755 10.54 183.472 11.86C182.225 13.18 181.253 14.72 180.557 16.48C179.86 18.2033 179.512 20.055 179.512 22.035ZM239.268 1.96C242.311 1.96 244.914 2.47333 247.078 3.5C249.241 4.52666 250.891 5.99333 252.028 7.9C253.201 9.80667 253.788 12.1167 253.788 14.83C253.788 16.4067 253.531 17.9833 253.018 19.56C252.541 21.1367 251.771 22.5667 250.707 23.85C249.681 25.1333 248.288 26.1783 246.528 26.985C244.804 27.755 242.678 28.14 240.148 28.14H234.373V42H227.938V1.96H239.268ZM240.148 21.925C241.541 21.925 242.714 21.6867 243.668 21.21C244.621 20.7333 245.354 20.1283 245.868 19.395C246.418 18.6617 246.803 17.91 247.023 17.14C247.279 16.3333 247.408 15.6183 247.408 14.995C247.408 14.335 247.298 13.62 247.078 12.85C246.858 12.0433 246.491 11.2917 245.978 10.595C245.464 9.86167 244.749 9.275 243.833 8.835C242.916 8.35833 241.743 8.12 240.313 8.12H234.373V21.925H240.148ZM267.061 1.96H293.626V8.12H273.496V18.79H291.426V25.005H273.496V35.84H294.396V42H267.061V1.96ZM305.902 1.96H332.687V8.12H322.347V42H315.967V8.12H305.902V1.96Z" fill="#0D0D0D"/>
</svg>
